<?xml version="1.0" standalone="no"?><!DOCTYPE svg PUBLIC "-//W3C//DTD SVG 1.1//EN" "http://www.w3.org/Graphics/SVG/1.1/DTD/svg11.dtd"><svg t="1570363997806" class="icon" viewBox="0 0 1024 1024" version="1.1" xmlns="http://www.w3.org/2000/svg" p-id="2513" xmlns:xlink="http://www.w3.org/1999/xlink" width="200" height="200"><defs><style type="text/css"></style></defs><path d="M0.512 534.055385c0 22.803692 9.176615 44.150154 25.915077 60.179692l338.747077 316.455385c7.758769 7.404308 18.156308 11.539692 29.105231 11.539692s21.346462-4.096 29.065846-11.539692L998.439385 279.158154c33.398154-31.901538 33.437538-88.182154 0-120.359385-16.305231-15.635692-37.888-24.260923-60.770462-24.260923s-44.465231 8.625231-60.770461 24.260923L394.279385 711.798154l-246.35077-237.922462c-16.265846-15.635692-37.848615-24.260923-60.731077-24.260923s-44.465231 8.625231-60.770461 24.260923a82.510769 82.510769 0 0 0-25.915077 60.179693z" fill="#B3B3B3" p-id="2514"></path></svg>