<?xml version="1.0" standalone="no"?><!DOCTYPE svg PUBLIC "-//W3C//DTD SVG 1.1//EN" "http://www.w3.org/Graphics/SVG/1.1/DTD/svg11.dtd"><svg class="icon" width="200px" height="200.00px" viewBox="0 0 1024 1024" version="1.1" xmlns="http://www.w3.org/2000/svg"><path fill="#333333" d="M944.128 708.608L942.08 184.32h2.048c16.384 0 30.72-14.336 30.72-30.72S960.512 122.88 944.128 122.88H61.44c-16.384 0-30.72 14.336-30.72 30.72S45.056 184.32 61.44 184.32h20.48v524.288H61.44c-16.384 0-30.72 14.336-30.72 30.72s14.336 30.72 30.72 30.72h430.08V901.12h-102.4c-16.384 0-30.72 14.336-30.72 30.72S372.736 962.56 389.12 962.56h266.24c16.384 0 30.72-14.336 30.72-30.72S671.744 901.12 655.36 901.12h-102.4v-131.072h391.168c16.384 0 30.72-14.336 30.72-30.72s-14.336-30.72-30.72-30.72zM264.192 552.96l153.6-155.648c12.288-12.288 32.768-12.288 43.008 0L552.96 491.52l182.272-184.32c12.288-12.288 30.72-12.288 43.008 0 12.288 12.288 12.288 30.72 0 43.008L573.44 557.056c-12.288 12.288-32.768 12.288-45.056 0l-90.112-96.256-129.024 133.12c-12.288 12.288-30.72 12.288-43.008 0-12.288-10.24-14.336-30.72-2.048-40.96z"  /></svg>