<?xml version="1.0" standalone="no"?><!DOCTYPE svg PUBLIC "-//W3C//DTD SVG 1.1//EN" "http://www.w3.org/Graphics/SVG/1.1/DTD/svg11.dtd"><svg class="icon" width="200px" height="200.00px" viewBox="0 0 1024 1024" version="1.1" xmlns="http://www.w3.org/2000/svg"><path fill="#333333" d="M512 0c281.577739 0 512 230.4 512 512 0 281.577739-230.422261 512-512 512C230.4 1024 0 793.577739 0 512 0 230.4 230.4 0 512 0z m0 44.521739C254.976 44.521739 44.521739 254.976 44.521739 512c0 257.001739 210.476522 467.478261 467.478261 467.478261 256.979478 0 467.478261-210.498783 467.478261-467.478261 0-257.001739-210.476522-467.478261-467.478261-467.478261z m81.586087 591.827478l-295.891478 118.917566c-18.18713 7.301565-36.285217-10.774261-28.939131-28.939131l118.873044-295.846956a77.222957 77.222957 0 0 1 42.807652-42.852174l295.869217-118.873044c18.18713-7.346087 36.285217 10.752 28.939131 28.939131l-118.873044 295.824695a77.356522 77.356522 0 0 1-42.785391 42.829913z m1.446956-59.41426l99.461566-247.429566-247.474087 99.439305a32.723478 32.723478 0 0 0-18.075826 18.075826l-99.439305 247.474087 247.407305-99.417044c8.236522-3.33913 14.848-9.950609 18.120347-18.142608zM512 556.521739c-24.509217 0-44.521739-20.034783-44.521739-44.521739s20.012522-44.521739 44.521739-44.521739c24.486957 0 44.521739 20.034783 44.521739 44.521739s-20.034783 44.521739-44.521739 44.521739z" /></svg>