<?xml version="1.0" standalone="no"?><!DOCTYPE svg PUBLIC "-//W3C//DTD SVG 1.1//EN" "http://www.w3.org/Graphics/SVG/1.1/DTD/svg11.dtd"><svg class="icon" width="200px" height="200.00px" viewBox="0 0 1024 1024" version="1.1" xmlns="http://www.w3.org/2000/svg"><path fill="#333333" d="M512 0c281.577739 0 512 230.4 512 512 0 281.577739-230.422261 512-512 512C230.4 1024 0 793.577739 0 512 0 230.4 230.4 0 512 0z m81.586087 636.349217a77.356522 77.356522 0 0 0 42.785391-42.829913l118.873044-295.846956c7.346087-18.16487-10.752-36.240696-28.939131-28.939131l-295.869217 118.873044a77.222957 77.222957 0 0 0-42.829913 42.852174l-118.873044 295.846956c-7.301565 18.18713 10.774261 36.285217 28.939131 28.939131l295.913739-118.873044z m1.446956-59.41426a32.857043 32.857043 0 0 1-18.120347 18.142608l-247.407305 99.417044 99.439305-247.474087a32.723478 32.723478 0 0 1 18.075826-18.075826l247.474087-99.439305-99.461566 247.429566zM512 556.521739c24.486957 0 44.521739-20.034783 44.521739-44.521739s-20.034783-44.521739-44.521739-44.521739c-24.509217 0-44.521739 20.034783-44.521739 44.521739s20.012522 44.521739 44.521739 44.521739z" /></svg>