<?xml version="1.0" standalone="no"?><!DOCTYPE svg PUBLIC "-//W3C//DTD SVG 1.1//EN" "http://www.w3.org/Graphics/SVG/1.1/DTD/svg11.dtd"><svg class="icon" width="200px" height="200.00px" viewBox="0 0 1024 1024" version="1.1" xmlns="http://www.w3.org/2000/svg"><path fill="#333333" d="M229.3888 218.5856h557.2352c71.0016 0 128.5632 57.5616 128.5632 128.5632 0 3.5584-0.1536 7.1296-0.5376 11.6352l-31.0784 279.552c-5.5552 66.6368-61.2608 117.888-128.128 117.888H233.728c-19.3664 0-35.0592-15.6928-35.0592-35.0592s15.6928-35.0592 35.0592-35.0592h521.7408c30.4 0 55.7184-23.296 58.3296-54.5408L844.8768 352c0.1408-1.6128 0.2048-3.2384 0.2048-4.8512 0-32.2816-26.1632-58.4448-58.4448-58.4448H206.8096c-13.7472 0-26.24-8.0384-31.9232-20.5568L112.064 129.8688c-8.0128-17.6256-0.2048-38.4128 17.4208-46.4256s38.4128-0.2048 46.4256 17.4208l53.4784 117.7216z m4.3392 303.8848c-19.3664 0-35.0592-15.6928-35.0592-35.0592s15.6928-35.0592 35.0592-35.0592h280.6784c19.3664 0 35.0592 15.6928 35.0592 35.0592s-15.6928 35.0592-35.0592 35.0592H233.728z m70.1312 420.7744c-32.2816 0-58.4448-26.1632-58.4448-58.4448 0-32.2816 26.1632-58.4448 58.4448-58.4448s58.4448 26.1632 58.4448 58.4448c-0.0128 32.2688-26.176 58.4448-58.4448 58.4448z m420.7616 0c-32.2816 0-58.4448-26.1632-58.4448-58.4448 0-32.2816 26.1632-58.4448 58.4448-58.4448 32.2816 0 58.4448 26.1632 58.4448 58.4448 0 32.2688-26.1632 58.4448-58.4448 58.4448z"  /></svg>